<svg id="Capa_1" enable-background="new 0 0 512.04 512.04" height="512" viewBox="0 0 512.04 512.04" width="512" xmlns="http://www.w3.org/2000/svg"><g><path d="m512.04 131.741v380.28h-512v-380.28l14.96-12.74h482.08z" fill="#48588b"/><path d="m512.04 131.741v380.28h-256.02v-393.02h241.06z" fill="#3c4a83"/><path d="m512.04.021v131.72h-512v-64.45l186.95-67.27z" fill="#f3f6ff"/><path d="m256.02.021h256.02v131.72h-256.02z" fill="#cddbf9"/><path d="m186.993.019-33.09 67.276h-153.903v-67.276z" fill="#60e2f4"/><g fill="#29c5ec"><path d="m305.048 60.325h30.005v30.005h-30.005z"/><path d="m365.724 60.325h30.005v30.005h-30.005z"/><path d="m426.4 60.325h30.005v30.005h-30.005z"/></g><path d="m118.306 305.45c-27.255 0-49.429-22.174-49.429-49.429s22.174-49.429 49.429-49.429 49.428 22.174 49.428 49.429-22.173 49.429-49.428 49.429zm0-68.858c-10.713 0-19.429 8.716-19.429 19.429s8.716 19.429 19.429 19.429 19.428-8.716 19.428-19.429-8.715-19.429-19.428-19.429z" fill="#60e2f4"/><path d="m187.163 443.164c-27.255 0-49.429-22.174-49.429-49.429s22.174-49.428 49.429-49.428 49.429 22.173 49.429 49.428-22.175 49.429-49.429 49.429zm0-68.857c-10.713 0-19.429 8.715-19.429 19.428s8.716 19.429 19.429 19.429 19.429-8.716 19.429-19.429-8.717-19.428-19.429-19.428z" fill="#60e2f4"/><path d="m393.734 443.164c-27.255 0-49.428-22.174-49.428-49.429s22.173-49.428 49.428-49.428 49.429 22.173 49.429 49.428-22.174 49.429-49.429 49.429zm0-68.857c-10.713 0-19.428 8.715-19.428 19.428s8.715 19.429 19.428 19.429 19.429-8.716 19.429-19.429-8.716-19.428-19.429-19.428z" fill="#29c5ec"/><path d="m324.877 305.45c-27.255 0-49.429-22.174-49.429-49.429s22.174-49.429 49.429-49.429 49.429 22.174 49.429 49.429-22.174 49.429-49.429 49.429zm0-68.858c-10.713 0-19.429 8.716-19.429 19.429s8.716 19.429 19.429 19.429 19.429-8.716 19.429-19.429-8.716-19.429-19.429-19.429z" fill="#29c5ec"/><path d="m206.591 206.583h30v98.938h-30z" fill="#60e2f4"/><path d="m275.449 344.266h30v98.938h-30z" fill="#29c5ec"/><path d="m68.877 344.266h30v98.938h-30z" fill="#60e2f4"/><path d="m413.163 206.583h30v98.938h-30z" fill="#29c5ec"/></g></svg>